<svg width="58" height="58" viewBox="0 0 58 58" fill="none" xmlns="http://www.w3.org/2000/svg">
<g clip-path="url(#clip0)">
<path d="M27.4633 28.784C26.4207 29.7552 18.0647 37.8622 18.0647 37.8622L20.2954 40.0616C20.2954 40.0616 27.7195 33.2097 28.8344 32.1734C29.1102 31.9181 29.5771 31.4316 30.4403 31.4316H55.76V27.9253H29.5601C28.7942 27.9262 28.0685 28.2261 27.4633 28.7831V28.784Z" fill="white"/>
<path d="M42.4642 9.72567C45.4332 9.72567 47.0533 7.66992 47.0533 5.1366C47.0531 4.22922 46.7839 3.34227 46.2797 2.58788C45.7755 1.8335 45.0589 1.24556 44.2205 0.898402C43.3822 0.551244 42.4597 0.460458 41.5698 0.637523C40.6799 0.814587 39.8624 1.25155 39.2208 1.89316C38.5792 2.53478 38.1422 3.35223 37.9652 4.24217C37.7881 5.1321 37.8789 6.05456 38.226 6.8929C38.5732 7.73124 39.1611 8.44783 39.9155 8.95205C40.6699 9.45627 41.5569 9.72549 42.4642 9.72567Z" fill="white"/>
<path d="M35.66 17.6113H37.1989L34.9441 25.712H49.9851L47.7285 17.6113H49.2674L51.6079 25.712H55.5838L52.3881 14.9628C51.9659 13.4784 50.0887 10.8486 46.8386 10.8486H38.0889C34.8406 10.8486 32.9651 13.4784 32.5393 14.9628L29.3481 25.712H33.324L35.66 17.6113Z" fill="white"/>
<path d="M22.6505 25.2871L18.6113 17.7559C18.6113 17.7559 18.3738 17.397 17.9338 17.6104C17.5383 17.8014 17.7168 18.2468 17.7168 18.2468L19.0567 20.8042L19.8904 22.3976L18.9291 21.9647C17.2259 21.197 16.2868 20.8694 15.9101 20.7007C15.8432 20.6695 15.5129 20.4882 15.3558 20.1428C14.9095 19.1448 13.0037 14.321 12.5761 13.2543C12.2146 12.3518 11.3229 11.07 9.49027 10.6165C7.40417 10.1006 5.3011 11.4163 4.80479 13.5096L1.95816 25.5076C1.70465 26.4752 1.26904 29.0924 1.26904 30.1957L1.28779 53.6311C1.30207 55.6083 2.7294 57.2026 4.70482 57.1936C6.67756 57.1874 8.02812 55.5798 8.02187 53.6052L8.01741 33.7511L11.0533 20.9372C11.4077 21.804 11.8468 22.86 11.9906 23.1135C12.3324 23.7116 12.6699 24.1231 13.359 24.4471C13.359 24.4471 17.3321 26.0914 18.8701 26.793C19.3094 26.9608 19.7908 26.9836 20.244 26.858C20.6971 26.7324 21.0981 26.465 21.3883 26.0949L21.6007 25.6549L21.6739 25.795C21.6739 25.795 22.1265 26.5921 22.7951 26.6287C22.987 26.0208 22.6514 25.2871 22.6514 25.2871H22.6505Z" fill="white"/>
<path d="M16.5094 5.09724C16.5094 5.69995 16.3906 6.29675 16.16 6.85357C15.9293 7.4104 15.5913 7.91634 15.1651 8.34252C14.7389 8.76869 14.233 9.10676 13.6762 9.3374C13.1193 9.56804 12.5225 9.68676 11.9198 9.68676C11.3171 9.68676 10.7203 9.56804 10.1635 9.3374C9.60668 9.10676 9.10074 8.76869 8.67456 8.34252C8.24838 7.91634 7.91032 7.4104 7.67968 6.85357C7.44903 6.29675 7.33032 5.69995 7.33032 5.09724C7.34714 3.89111 7.83808 2.74008 8.69695 1.89311C9.55583 1.04613 10.7136 0.571289 11.9198 0.571289C13.1261 0.571289 14.2838 1.04613 15.1427 1.89311C16.0016 2.74008 16.4925 3.89111 16.5094 5.09724Z" fill="white"/>
<path d="M18.5765 35.0446L27.519 26.7216L26.3568 25.4746L17.4143 33.7985L18.5765 35.0446Z" fill="white"/>
</g>
<defs>
<clipPath id="clip0">
<rect width="57.129" height="57.129" fill="white" transform="translate(0.0644531 0.0644531)"/>
</clipPath>
</defs>
</svg>
