<svg width="38" height="36" viewBox="0 0 38 36" fill="none" xmlns="http://www.w3.org/2000/svg">
<path d="M37.8478 25.3161C37.9217 25.4273 37.97 25.5501 37.9898 25.6777C38.0096 25.8052 38.0005 25.9349 37.9632 26.0594C37.9258 26.1839 37.8608 26.3007 37.772 26.4032C37.6832 26.5056 37.5722 26.5917 37.4454 26.6566L19.5631 35.8044C19.3922 35.8918 19.1979 35.9379 19 35.9379C18.8021 35.9379 18.6078 35.8918 18.4369 35.8044L0.554572 26.6566C0.298517 26.5256 0.112276 26.3108 0.03682 26.0594C-0.0386356 25.808 0.00287509 25.5406 0.15222 25.3161C0.301565 25.0915 0.546511 24.9282 0.833173 24.862C1.11983 24.7959 1.42473 24.8323 1.68078 24.9632L19 33.8231L36.3192 24.9632C36.446 24.8984 36.5861 24.8561 36.7315 24.8387C36.877 24.8213 37.0249 24.8293 37.1668 24.862C37.3087 24.8948 37.4419 24.9518 37.5588 25.0297C37.6756 25.1076 37.7738 25.2049 37.8478 25.3161ZM36.3192 17.1223L19 25.9821L1.68078 17.1223C1.42473 16.9913 1.11983 16.9549 0.833173 17.0211C0.546511 17.0872 0.301565 17.2506 0.15222 17.4751C0.00287509 17.6997 -0.0386356 17.967 0.03682 18.2184C0.112276 18.4698 0.298517 18.6846 0.554572 18.8156L18.4369 27.9634C18.6078 28.0508 18.8021 28.0969 19 28.0969C19.1979 28.0969 19.3922 28.0508 19.5631 27.9634L37.4454 18.8156C37.5722 18.7507 37.6832 18.6646 37.772 18.5622C37.8608 18.4597 37.9258 18.3429 37.9632 18.2184C38.0005 18.094 38.0096 17.9642 37.9897 17.8367C37.9699 17.7092 37.9217 17.5863 37.8478 17.4751C37.7738 17.3639 37.6756 17.2666 37.5588 17.1887C37.4419 17.1108 37.3087 17.0538 37.1668 17.0211C36.8801 16.9549 36.5752 16.9913 36.3192 17.1223ZM3.44122e-05 10.128C2.80738e-05 9.95664 0.0512262 9.78832 0.148525 9.63976C0.245824 9.49121 0.385825 9.36761 0.554572 9.2813L18.4369 0.133492C18.6078 0.0460662 18.8021 0 19 0C19.1979 0 19.3922 0.0460662 19.5631 0.133492L37.4454 9.2813C37.6142 9.3676 37.7542 9.4912 37.8515 9.63975C37.9488 9.78831 38 9.95664 38 10.128C38 10.2993 37.9488 10.4676 37.8515 10.6162C37.7542 10.7647 37.6142 10.8883 37.4454 10.9746L19.5631 20.1224C19.3922 20.2099 19.1979 20.2559 19 20.2559C18.8021 20.2559 18.6078 20.2099 18.4369 20.1224L0.554572 10.9746C0.385825 10.8883 0.245824 10.7647 0.148525 10.6162C0.0512262 10.4676 2.80738e-05 10.2993 3.44122e-05 10.128ZM3.33583 10.128L19 18.1411L34.6641 10.128L19 2.11481L3.33583 10.128Z" fill="black"/>
</svg>
