<svg width="30" height="21" viewBox="0 0 30 21" fill="none" xmlns="http://www.w3.org/2000/svg">
<path fill-rule="evenodd" clip-rule="evenodd" d="M11.7638 0L10.9636 0.0890947C10.9636 0.0890947 7.37323 0.452109 4.75116 2.39987H4.72042L4.68763 2.42831C4.12999 2.9028 3.87079 3.4804 3.50042 4.30571C3.48017 4.35085 3.45958 4.39672 3.43859 4.44337C2.9615 5.52555 2.55534 6.63334 2.22234 7.76073C1.46205 10.3037 0.845215 13.3841 0.845215 16.202V16.4389L0.973295 16.6759C1.92212 18.2161 3.60663 19.1971 5.16819 19.8748C6.72873 20.5525 8.07818 20.9117 9.01061 20.9411L9.61925 20.9705L9.93894 20.4672L11.0599 18.6303C12.2485 18.8786 13.6174 19.0454 15.1902 19.0454C16.7631 19.0454 18.132 18.8786 19.3206 18.6303L20.4416 20.4672L20.7623 20.9705L21.3699 20.9411C22.3023 20.9117 23.6518 20.5525 25.2123 19.8748C26.7739 19.1971 28.4584 18.2161 29.4072 16.6759L29.5353 16.4389V16.202C29.5353 13.3841 28.9184 10.3037 28.1582 7.76073C27.8251 6.63334 27.419 5.52555 26.9419 4.44337L26.8821 4.3101C26.5107 3.48166 26.2515 2.90372 25.6929 2.42926L25.6611 2.39893H25.6283C23.0083 0.452109 19.4169 0.0890947 19.4169 0.0890947L18.6167 0L18.3277 0.681481C18.3277 0.681481 18.0316 1.37339 17.8482 2.16292C16.9673 2.05049 16.0795 1.99097 15.1902 1.98473C14.6421 1.98473 13.6943 2.0179 12.5323 2.16292C12.3479 1.37339 12.0518 0.681481 12.0518 0.681481L11.7638 0ZM18.7765 8.61945C17.9845 8.61945 17.2836 9.03744 16.8553 9.56727C16.427 10.0971 16.2149 10.7482 16.2149 11.4629C16.2149 12.1776 16.427 12.8287 16.8553 13.3585C17.2836 13.8884 17.9845 14.3064 18.7765 14.3064C19.5686 14.3064 20.2694 13.8884 20.6977 13.3585C21.126 12.8287 21.3381 12.1776 21.3381 11.4629C21.3381 10.7482 21.126 10.0971 20.6977 9.56727C20.2694 9.03744 19.5686 8.61945 18.7765 8.61945ZM18.7765 10.5151C18.8329 10.5151 18.9046 10.534 19.0327 10.6933C19.1607 10.8516 19.2888 11.1293 19.2888 11.4629C19.2888 11.7965 19.1607 12.0742 19.0327 12.2335C18.9046 12.3918 18.8329 12.4107 18.7765 12.4107C18.7201 12.4107 18.6484 12.3918 18.5203 12.2325C18.3509 12.0067 18.2614 11.7378 18.2642 11.4629C18.2642 11.1293 18.3923 10.8516 18.5203 10.6923C18.6484 10.534 18.7201 10.5151 18.7765 10.5151ZM9.68278 9.56727C10.1111 9.03744 10.8119 8.61945 11.604 8.61945C12.396 8.61945 13.0969 9.03744 13.5252 9.56727C13.9535 10.0971 14.1656 10.7482 14.1656 11.4629C14.1656 12.1776 13.9535 12.8287 13.5252 13.3585C13.0969 13.8884 12.396 14.3064 11.604 14.3064C10.8119 14.3064 10.1111 13.8884 9.68278 13.3585C9.25448 12.8287 9.04238 12.1776 9.04238 11.4629C9.04238 10.7482 9.25448 10.0971 9.68278 9.56727ZM11.604 10.5151C11.6603 10.5151 11.7321 10.534 11.8602 10.6933C11.9882 10.8516 12.1163 11.1293 12.1163 11.4629C12.1163 11.7965 11.9882 12.0742 11.8602 12.2335C11.7321 12.3918 11.6603 12.4107 11.604 12.4107C11.5476 12.4107 11.4759 12.3918 11.3478 12.2325C11.1784 12.0067 11.0889 11.7378 11.0917 11.4629C11.0917 11.1293 11.2197 10.8516 11.3478 10.6923C11.4759 10.534 11.5476 10.5151 11.604 10.5151Z" fill="white"/>
</svg>
