<svg width="19" height="18" viewBox="0 0 19 18" fill="none" xmlns="http://www.w3.org/2000/svg">
<path d="M9.13021 0.0651035C10.3889 0.0651035 11.5694 0.299478 12.6719 0.768228C13.783 1.2283 14.7465 1.8533 15.5625 2.64323C16.3785 3.43316 17.0208 4.3533 17.4896 5.40365C17.967 6.45399 18.2057 7.5651 18.2057 8.73698C18.2057 9.50087 18.1016 10.1823 17.8932 10.7812C17.6849 11.3715 17.4115 11.8707 17.0729 12.2786C16.7431 12.6866 16.3481 12.9991 15.888 13.2161C15.4366 13.4245 14.9635 13.5286 14.4688 13.5286C13.9392 13.5286 13.4835 13.4592 13.1016 13.3203C12.7283 13.1814 12.4288 13.0122 12.2031 12.8125C11.9167 12.5955 11.6953 12.3481 11.5391 12.0703C11.3394 12.3568 11.0964 12.6042 10.8099 12.8125C10.5582 13.0122 10.25 13.1814 9.88542 13.3203C9.52951 13.4592 9.09983 13.5286 8.59635 13.5286C8.02344 13.5286 7.48958 13.4201 6.99479 13.2031C6.5 12.9774 6.06597 12.6649 5.69271 12.2656C5.31944 11.8663 5.01997 11.3932 4.79427 10.8464C4.57726 10.2908 4.46875 9.67448 4.46875 8.9974C4.46875 8.33767 4.57726 7.73003 4.79427 7.17448C5.01997 6.61024 5.31944 6.12847 5.69271 5.72917C6.06597 5.32986 6.5 5.0217 6.99479 4.80469C7.49826 4.57899 8.03212 4.46615 8.59635 4.46615C9.0217 4.46615 9.39931 4.53559 9.72917 4.67448C10.059 4.80469 10.3411 4.93924 10.5755 5.07812C10.8446 5.25174 11.0747 5.44705 11.2656 5.66406L11.6693 4.59635H13.1276V9.80469C13.1276 10.5512 13.2491 11.072 13.4922 11.3672C13.7352 11.6536 14.0608 11.7969 14.4688 11.7969C14.9288 11.7969 15.3325 11.5712 15.6797 11.1198C16.0269 10.6684 16.2005 9.87413 16.2005 8.73698C16.2005 7.81684 16.0139 6.93576 15.6406 6.09375C15.2674 5.24306 14.7595 4.50087 14.1172 3.86719C13.4748 3.23351 12.724 2.73003 11.8646 2.35677C11.0052 1.98351 10.0938 1.79687 9.13021 1.79687C8.16667 1.79687 7.25521 1.98351 6.39583 2.35677C5.53646 2.73003 4.78559 3.24219 4.14323 3.89323C3.50955 4.54427 3.00608 5.3125 2.63281 6.19792C2.25955 7.07465 2.07292 8.00781 2.07292 8.9974C2.07292 9.99566 2.25955 10.9375 2.63281 11.8229C3.00608 12.6997 3.50955 13.4635 4.14323 14.1146C4.78559 14.7569 5.53646 15.2648 6.39583 15.638C7.26389 16.0113 8.17535 16.1979 9.13021 16.1979C9.70313 16.1979 10.2196 16.1328 10.6797 16.0026C11.1398 15.8811 11.5391 15.7509 11.8776 15.612C12.2682 15.4384 12.6241 15.2344 12.9453 15L13.9609 16.5234C13.5356 16.8099 13.0712 17.0486 12.5677 17.2396C12.1424 17.4132 11.6345 17.5694 11.0443 17.7083C10.4627 17.8559 9.82465 17.9297 9.13021 17.9297C7.87153 17.9297 6.69097 17.6953 5.58854 17.2266C4.48611 16.7578 3.52257 16.1155 2.69792 15.2995C1.88194 14.4922 1.23958 13.5503 0.770833 12.474C0.302083 11.3889 0.0677084 10.23 0.0677084 8.9974C0.0677084 7.77344 0.302083 6.61892 0.770833 5.53385C1.23958 4.44878 1.88194 3.5026 2.69792 2.69531C3.52257 1.88802 4.48611 1.25 5.58854 0.781249C6.69097 0.303819 7.87153 0.0651035 9.13021 0.0651035ZM8.86979 11.7969C9.61632 11.7969 10.224 11.5495 10.6927 11.0547C11.1615 10.5599 11.3958 9.87413 11.3958 8.9974C11.3958 8.12934 11.1615 7.44792 10.6927 6.95312C10.224 6.44965 9.61632 6.19792 8.86979 6.19792C8.53125 6.19792 8.21007 6.2717 7.90625 6.41927C7.60243 6.55816 7.33333 6.75347 7.09896 7.00521C6.87326 7.24826 6.68663 7.5434 6.53906 7.89062C6.40017 8.23785 6.33073 8.60677 6.33073 8.9974C6.33073 9.40538 6.40017 9.77865 6.53906 10.1172C6.68663 10.4557 6.87326 10.7509 7.09896 11.0026C7.33333 11.2457 7.60243 11.441 7.90625 11.5885C8.21007 11.7274 8.53125 11.7969 8.86979 11.7969Z" fill="white"/>
</svg>
