<svg width="19" height="20" viewBox="0 0 19 20" fill="none" xmlns="http://www.w3.org/2000/svg">
<path fill-rule="evenodd" clip-rule="evenodd" d="M14.068 0.125092C15.1641 0.348473 16.1785 0.866354 17.0022 1.62306C17.826 2.37977 18.4279 3.34668 18.7433 4.41985C19.0355 5.40383 19.079 6.44491 18.8697 7.45064C18.5672 8.82855 17.8059 10.063 16.7104 10.9518C15.6149 11.8406 14.2501 12.3313 12.8394 12.3434C12.2441 12.3434 11.6516 12.2578 11.0821 12.0852L9.99482 13.36L9.47972 13.5978H8.1546V15.6365L7.47505 16.316H5.4364V18.3547L4.75685 19.0342H0.67955L0 18.3547V15.2193L0.198429 14.7395L6.95859 7.97933C6.76674 7.36138 6.67497 6.71673 6.68677 6.06979C6.69916 5.16468 6.91106 4.27345 7.30738 3.45962C7.7037 2.6458 8.27467 1.92942 8.97959 1.36156C9.68452 0.793702 10.506 0.388345 11.3856 0.174384C12.2651 -0.0395766 13.181 -0.056871 14.068 0.123733V0.125092ZM15.8593 9.91061C16.7131 9.21925 17.3068 8.25847 17.5433 7.18561L17.5487 7.19241C17.7171 6.40794 17.6868 5.59383 17.4606 4.82405C17.2343 4.05427 16.8193 3.35321 16.2533 2.78459C15.6872 2.21597 14.988 1.79781 14.2193 1.5681C13.4505 1.33838 12.6366 1.3044 11.8513 1.46924C10.7923 1.7043 9.84236 2.2869 9.15275 3.12429C8.46313 3.96169 8.07349 5.00573 8.04587 6.09018C8.03228 6.70993 8.14101 7.32424 8.37069 7.89778L8.22119 8.63577L1.3591 15.5006V17.6751H4.0773V15.6365L4.75685 14.9569H6.7955V12.9183L7.47505 12.2387H9.16713L10.3577 10.8579L11.1202 10.6676C11.6698 10.8824 12.2548 10.9921 12.8449 10.9911C13.943 10.9827 15.0058 10.6017 15.8593 9.91061ZM14.7204 6.19755C14.8276 6.04948 14.9038 5.88131 14.9444 5.70311C14.9851 5.5249 14.9894 5.34033 14.9571 5.16043C14.9247 4.98053 14.8565 4.80899 14.7563 4.65609C14.6562 4.50319 14.5262 4.37205 14.3742 4.27054C14.2222 4.16902 14.0513 4.09921 13.8717 4.06528C13.6921 4.03134 13.5075 4.03399 13.3289 4.07305C13.1504 4.11211 12.9815 4.18679 12.8325 4.29261C12.6835 4.39844 12.5573 4.53324 12.4616 4.68895C12.2774 4.98848 12.2165 5.34772 12.2917 5.6912C12.3668 6.03468 12.5722 6.33568 12.8645 6.53096C13.1569 6.72624 13.5136 6.80061 13.8597 6.73843C14.2058 6.67626 14.5143 6.48239 14.7204 6.19755Z" fill="white"/>
</svg>
