<svg width="18" height="22" viewBox="0 0 18 22" fill="none" xmlns="http://www.w3.org/2000/svg">
<path d="M16.25 21.5C16.25 21.5 18 21.5 18 19.75C18 18 16.25 12.75 9.25 12.75C2.25 12.75 0.5 18 0.5 19.75C0.5 21.5 2.25 21.5 2.25 21.5H16.25ZM2.2885 19.75C2.27557 19.7482 2.26273 19.7459 2.25 19.743C2.25175 19.281 2.54225 17.9405 3.58 16.733C4.546 15.6008 6.2435 14.5 9.25 14.5C12.2548 14.5 13.9522 15.6025 14.92 16.733C15.9577 17.9405 16.2465 19.2828 16.25 19.743L16.236 19.7465C16.2279 19.7479 16.2197 19.749 16.2115 19.75H2.2885ZM9.25 9.25C10.1783 9.25 11.0685 8.88125 11.7249 8.22487C12.3813 7.5685 12.75 6.67826 12.75 5.75C12.75 4.82174 12.3813 3.9315 11.7249 3.27513C11.0685 2.61875 10.1783 2.25 9.25 2.25C8.32174 2.25 7.4315 2.61875 6.77513 3.27513C6.11875 3.9315 5.75 4.82174 5.75 5.75C5.75 6.67826 6.11875 7.5685 6.77513 8.22487C7.4315 8.88125 8.32174 9.25 9.25 9.25ZM14.5 5.75C14.5 6.43944 14.3642 7.12213 14.1004 7.75909C13.8365 8.39605 13.4498 8.9748 12.9623 9.46231C12.4748 9.94982 11.896 10.3365 11.2591 10.6004C10.6221 10.8642 9.93944 11 9.25 11C8.56056 11 7.87787 10.8642 7.24091 10.6004C6.60395 10.3365 6.0252 9.94982 5.53769 9.46231C5.05018 8.9748 4.66347 8.39605 4.39963 7.75909C4.13579 7.12213 4 6.43944 4 5.75C4 4.35761 4.55312 3.02226 5.53769 2.03769C6.52225 1.05312 7.85761 0.5 9.25 0.5C10.6424 0.5 11.9777 1.05312 12.9623 2.03769C13.9469 3.02226 14.5 4.35761 14.5 5.75Z" fill="white"/>
</svg>
