<svg width="35" height="19" viewBox="0 0 35 19" fill="none" xmlns="http://www.w3.org/2000/svg">
<path fill-rule="evenodd" clip-rule="evenodd" d="M33.5005 1.37704C33.7377 0.658179 33.5005 0.128906 32.3648 0.128906H28.6147C27.6604 0.128906 27.2204 0.585766 26.9819 1.09002C26.9819 1.09002 25.0747 5.29787 22.3732 8.03113C21.4989 8.82372 21.1018 9.07519 20.6246 9.07519C20.386 9.07519 20.0275 8.82372 20.0275 8.10354V1.37704C20.0275 0.513353 19.7646 0.128906 18.9703 0.128906H13.0731C12.4773 0.128906 12.1188 0.529152 12.1188 0.909649C12.1188 1.72726 13.4702 1.91685 13.6088 4.21826V9.2187C13.6088 10.3154 13.3902 10.5142 12.9131 10.5142C11.6416 10.5142 8.54871 6.28663 6.71297 1.44945C6.35725 0.508086 5.99724 0.128906 5.03865 0.128906H1.28574C0.214289 0.128906 0 0.585766 0 1.09002C0 1.98794 1.27145 6.44858 5.92152 12.3483C9.02157 16.377 13.3859 18.5613 17.3617 18.5613C19.746 18.5613 20.0403 18.0768 20.0403 17.2407V14.1954C20.0403 13.2251 20.266 13.0316 21.0218 13.0316C21.5789 13.0316 22.5318 13.2844 24.7575 15.2263C27.3004 17.5291 27.719 18.5613 29.1505 18.5613H32.9005C33.972 18.5613 34.5091 18.0768 34.2006 17.1183C33.8605 16.1651 32.6462 14.7813 31.0362 13.1395C30.1619 12.2047 28.8505 11.1975 28.4519 10.6933C27.8962 10.0468 28.0547 9.7585 28.4519 9.18315C28.4519 9.18315 33.0234 3.35589 33.4991 1.37704H33.5005Z" fill="white"/>
</svg>
