<svg width="34" height="21" viewBox="0 0 34 21" fill="none" xmlns="http://www.w3.org/2000/svg">
<path d="M32.3775 3.2758C32.1916 2.64147 31.8272 2.063 31.3208 1.59828C30.8144 1.13356 30.1836 0.798899 29.4917 0.627778C26.9448 1.37425e-07 16.7352 0 16.7352 0C16.7352 0 6.52569 -1.37425e-07 3.97877 0.624439C3.28655 0.795004 2.65548 1.12948 2.14894 1.59429C1.6424 2.05909 1.27823 2.63786 1.09299 3.27246C0.411621 5.60993 0.411621 10.4852 0.411621 10.4852C0.411621 10.4852 0.411621 15.3605 1.09299 17.6947C1.46828 18.9836 2.57596 19.9987 3.97877 20.3427C6.52569 20.9705 16.7352 20.9705 16.7352 20.9705C16.7352 20.9705 26.9448 20.9705 29.4917 20.3427C30.8981 19.9987 32.0022 18.9836 32.3775 17.6947C33.0588 15.3605 33.0588 10.4852 33.0588 10.4852C33.0588 10.4852 33.0588 5.60993 32.3775 3.2758ZM13.4924 14.9598V6.01064L21.9457 10.4518L13.4924 14.9598Z" fill="white"/>
</svg>
